# xmcd
#
# Track frame offsets:
#	150
#	16047
#	29327
#	46703
#	66787
#	89514
#	103710
#	125205
#	146150
#	163198
#
# Disc length: 2471 seconds
#
# Revision: 1
# Processed by: cddbd v1.5.2PL0 Copyright (c) Steve Scherf et al.
# Submitted via: audiograbber 1.83.01
#
DISCID=8709a50a
DTITLE=Fabrizio Zanotti - Pensieri Corti
DYEAR=2010
DGENRE=pop
TTITLE0=chini marco
TTITLE1=barack obama
TTITLE2=pensieri corti
TTITLE3=l´ascensorista
TTITLE4=musi calenta
TTITLE5=l´universo che ora dorme
TTITLE6=guieta la mente
TTITLE7=mezzospago (ode al sud)
TTITLE8=ho visto nina volare
TTITLE9=la storia  continua
EXTD=
EXTT0=
EXTT1=
EXTT2=
EXTT3=
EXTT4=
EXTT5=
EXTT6=
EXTT7=
EXTT8=
EXTT9=
PLAYORDER=
